# xmcd
#
# Track frame offsets: 
#        182
#        17577
#        41522
#        65175
#        80705
#        97540
#        117545
#        132537
#        149722
#        168162
#        193775
#
# Disc length: 3037 seconds
#
# Revision: 7
# Processed by: cddbd v1.5.2PL0 Copyright (c) Steve Scherf et al.
# Submitted via: ExactAudioCopy v0.95a4
#
DISCID=9e0bdb0b
DTITLE=Iris Dement - The Way I Should
DYEAR=1996
DGENRE=Folk
TTITLE0=When My Mornin' Comes Around
TTITLE1=There's A Wall In Washington
TTITLE2=Wasteland Of The Free
TTITLE3=I'll Take My Sorrow Straight
TTITLE4=This Kind Of Happy
TTITLE5=The Way I Should
TTITLE6=Letter To Mom
TTITLE7=Keep Me God
TTITLE8=Quality Time
TTITLE9=Walkin' Home
TTITLE10=Trouble (Duet With Delbert McClinton)
EXTD=Submitted 6/27/97\n[Jmccoy@efn.org]
EXTT0=
EXTT1=
EXTT2=
EXTT3=
EXTT4=
EXTT5=
EXTT6=
EXTT7=
EXTT8=
EXTT9=
EXTT10=
PLAYORDER=
